<svg aria-hidden="true" style="position: absolute; width: 0; height: 0; overflow: hidden;" version="1.1" xmlns="http://www.w3.org/2000/svg" xmlns:xlink="http://www.w3.org/1999/xlink">
  
  <symbol id="icon-ukraine" viewBox="0 0 32 32">
    <path fill="#ffda44" style="fill: var(--color1, #ffda44)" d="M16 32c8.837 0 16-7.163 16-16s-7.163-16-16-16c-8.837 0-16 7.163-16 16s7.163 16 16 16z"></path>
    <path fill="#338af3" style="fill: var(--color2, #338af3)" d="M0 16c0-8.836 7.163-16 16-16s16 7.163 16 16z"></path>
  </symbol>

  <symbol id="icon-log-in" viewBox="0 0 32 32">
    <path fill="none" stroke="currentColor" stroke-linejoin="round" stroke-linecap="round" stroke-miterlimit="4" stroke-width="3.2" d="M20 4h1.6c2.24 0 3.36 0 4.216 0.436 0.753 0.383 1.364 0.995 1.748 1.748 0.436 0.856 0.436 1.976 0.436 4.216v11.2c0 2.24 0 3.36-0.436 4.216-0.384 0.753-0.995 1.364-1.748 1.748-0.856 0.436-1.976 0.436-4.216 0.436h-1.6"></path>
    <path fill="none" stroke="currentColor" stroke-linejoin="round" stroke-linecap="round" stroke-miterlimit="4" stroke-width="3.2" d="M13.333 22.667l6.667-6.667-6.667-6.667M20 16h-16"></path>
  </symbol>

<symbol id="icon-apple" viewBox="0 0 47 56">
    <path d="M34.5343 1.11595C34.5343 3.90594 33.5355 6.51079 31.5445 8.92169C29.1419 11.7881 26.2358 13.4443 23.0844 13.183C23.0443 12.8483 23.021 12.4961 23.021 12.1258C23.021 9.44762 24.1636 6.58124 26.1926 4.23772C27.2057 3.05111 28.494 2.06459 30.0564 1.27754C31.6154 0.502169 33.09 0.0733183 34.477 2.99824e-10C34.495 0.165888 34.5083 0.331776 34.5176 0.497254C34.5291 0.704102 34.5343 0.91054 34.5343 1.11595Z"  />
    <path d="M45.0829 43.4728C44.2562 45.4217 43.2776 47.2158 42.1437 48.865C40.5982 51.1137 39.3328 52.67 38.3576 53.5342C36.8458 54.9529 35.2261 55.6795 33.4916 55.7209C32.2464 55.7209 30.7448 55.3592 28.9968 54.6258C27.2431 53.8959 25.6315 53.5342 24.1578 53.5342C22.6123 53.5342 20.9548 53.8959 19.1818 54.6258C17.4062 55.3592 15.9758 55.7416 14.8821 55.7795C13.2188 55.8518 11.5609 55.1044 9.9061 53.5342C8.84988 52.5942 7.52878 50.9828 5.94616 48.6997C4.24812 46.262 2.8521 43.435 1.75843 40.212C0.587155 36.7306 2.88969e-10 33.3596 2.60698e-10 30.0959C2.28315e-10 26.3575 0.791648 23.1332 2.37732 20.4312C3.6235 18.2608 5.28138 16.5488 7.35635 15.292C9.43131 14.0351 11.6733 13.3947 14.0877 13.3538C15.4088 13.3538 17.1413 13.7707 19.2942 14.5901C21.441 15.4124 22.8195 15.8294 23.4239 15.8294C23.8757 15.8294 25.4071 15.342 28.003 14.3698C30.458 13.4685 32.5299 13.0951 34.2272 13.2421C38.8267 13.6208 42.2821 15.471 44.5801 18.8043C40.4666 21.3475 38.4318 24.9096 38.4723 29.4793C38.5094 33.0387 39.7749 36.0007 42.2619 38.3524C43.3889 39.444 44.6476 40.2876 46.048 40.8868C45.7443 41.7855 45.4237 42.6465 45.0829 43.4728Z" />
  </symbol>
  <symbol id="icon-open-book" viewBox="0 0 16 16" fill="none">
    <path d="M14.6667 4.13333C14.6667 3.3866 14.6667 3.01323 14.5213 2.72801C14.3935 2.47713 14.1895 2.27316 13.9387 2.14532C13.6534 2 13.2801 2 12.5333 2H12.2667C10.7732 2 10.0265 2 9.45603 2.29065C8.95426 2.54631 8.54631 2.95426 8.29065 3.45603C8 4.02646 8 4.77319 8 6.26667V14L8.0667 13.8999C8.5298 13.2053 8.76135 12.858 9.06727 12.6065C9.33809 12.3839 9.65016 12.2169 9.9856 12.1151C10.3645 12 10.7819 12 11.6168 12H12.5333C13.2801 12 13.6534 12 13.9387 11.8547C14.1895 11.7268 14.3935 11.5229 14.5213 11.272C14.6667 10.9868 14.6667 10.6134 14.6667 9.86667V4.13333Z" stroke="black" stroke-width="1.5" stroke-linecap="round" stroke-linejoin="round" />
    <path d="M1.33331 4.13333C1.33331 3.3866 1.33331 3.01323 1.47864 2.72801C1.60647 2.47713 1.81044 2.27316 2.06133 2.14532C2.34654 2 2.71991 2 3.46665 2H3.73331C5.22679 2 5.97352 2 6.54395 2.29065C7.04572 2.54631 7.45367 2.95426 7.70933 3.45603C7.99998 4.02646 7.99998 4.77319 7.99998 6.26667V14L7.93328 13.8999C7.47018 13.2053 7.23863 12.858 6.93271 12.6065C6.66188 12.3839 6.34982 12.2169 6.01438 12.1151C5.63548 12 5.21805 12 4.3832 12H3.46665C2.71991 12 2.34654 12 2.06133 11.8547C1.81044 11.7268 1.60647 11.5229 1.47864 11.272C1.33331 10.9868 1.33331 10.6134 1.33331 9.86667V4.13333Z" stroke="black" stroke-width="1.5" stroke-linecap="round" stroke-linejoin="round" />
  </symbol>  
  <symbol id="icon-star" viewBox="0 0 15 14" fill="none">
    <path d="M8.88971 4.12573C9.04886 4.42725 9.33893 4.63786 9.67487 4.69604L13.4747 5.35229L10.7872 8.11987C10.5497 8.36444 10.4388 8.70526 10.4874 9.04272L11.0362 12.8601L7.57526 11.1589L7.45807 11.1091C7.21999 11.0245 6.95982 11.0245 6.72174 11.1091L6.60455 11.1589L3.14264 12.8601L3.69244 9.04272C3.74097 8.70526 3.63016 8.36444 3.39264 8.11987L0.704163 5.35229L4.50494 4.69604C4.84088 4.63786 5.13095 4.42725 5.2901 4.12573L7.0899 0.7146L8.88971 4.12573Z" fill="#FFC531" stroke="#FFC531" stroke-width="1.2" />
  </symbol>
  <symbol id="icon-heart" viewBox="0 0 25 22" fill="none">
    <path d="M21.8989 2.74614C21.3456 2.19257 20.6886 1.75343 19.9655 1.45382C19.2425 1.15421 18.4674 1 17.6847 1C16.902 1 16.127 1.15421 15.4039 1.45382C14.6809 1.75343 14.0239 2.19257 13.4706 2.74614L12.3222 3.89448L11.1739 2.74614C10.0562 1.62848 8.54035 1.00058 6.95973 1.00058C5.37911 1.00058 3.86323 1.62848 2.74557 2.74614C1.6279 3.86381 1 5.37969 1 6.96031C1 8.54093 1.6279 10.0568 2.74557 11.1745L3.8939 12.3228L12.3222 20.7511L20.7506 12.3228L21.8989 11.1745C22.4525 10.6212 22.8916 9.96419 23.1912 9.24111C23.4908 8.51803 23.645 7.74301 23.645 6.96031C23.645 6.17762 23.4908 5.40259 23.1912 4.67951C22.8916 3.95643 22.4525 3.29946 21.8989 2.74614Z" stroke="#121417" stroke-width="2" stroke-linecap="round" stroke-linejoin="round" />
  </symbol>
</svg>